<svg width="18" height="18" viewBox="0 0 18 18" fill="none" xmlns="http://www.w3.org/2000/svg">
<path d="M16.8758 9.17493C16.8758 8.52743 16.8222 8.05493 16.7061 7.56494H9.1615V10.4874H13.59C13.5008 11.2137 13.0186 12.3074 11.9472 13.0424L11.9322 13.1402L14.3176 14.9513L14.4829 14.9674C16.0007 13.5937 16.8758 11.5724 16.8758 9.17493" fill="#4285F4"/>
<path d="M9.16099 16.8752C11.3306 16.8752 13.152 16.1751 14.4824 14.9677L11.9467 13.0426C11.2681 13.5064 10.3574 13.8301 9.16099 13.8301C7.03601 13.8301 5.23246 12.4564 4.58954 10.5576L4.4953 10.5655L2.01486 12.4467L1.98242 12.5351C3.30383 15.1076 6.01811 16.8752 9.16099 16.8752Z" fill="#34A853"/>
<path d="M4.59004 10.5576C4.4204 10.0676 4.32223 9.54257 4.32223 9.0001C4.32223 8.45756 4.4204 7.93258 4.58112 7.44259L4.57662 7.33823L2.06509 5.42676L1.98291 5.46506C1.4383 6.53258 1.12579 7.73135 1.12579 9.0001C1.12579 10.2688 1.4383 11.4676 1.98291 12.5351L4.59004 10.5576" fill="#FBBC05"/>
<path d="M9.16103 4.16998C10.6699 4.16998 11.6878 4.80873 12.2682 5.34251L14.536 3.1725C13.1432 1.90375 11.3306 1.125 9.16103 1.125C6.01814 1.125 3.30384 2.89249 1.98242 5.46497L4.58063 7.44249C5.23248 5.54375 7.03604 4.16998 9.16103 4.16998" fill="#EB4335"/>
</svg>
