<svg width="150" height="40" viewBox="0 0 150 40" fill="none" xmlns="http://www.w3.org/2000/svg">
<path d="M42.988 35V9.8H53.896C56.152 9.8 58.096 10.172 59.728 10.916C61.36 11.636 62.62 12.68 63.508 14.048C64.396 15.416 64.84 17.048 64.84 18.944C64.84 20.816 64.396 22.436 63.508 23.804C62.62 25.148 61.36 26.18 59.728 26.9C58.096 27.62 56.152 27.98 53.896 27.98H46.228L48.82 25.424V35H42.988ZM59.008 35L52.708 25.856H58.936L65.308 35H59.008ZM48.82 26.072L46.228 23.336H53.572C55.372 23.336 56.716 22.952 57.604 22.184C58.492 21.392 58.936 20.312 58.936 18.944C58.936 17.552 58.492 16.472 57.604 15.704C56.716 14.936 55.372 14.552 53.572 14.552H46.228L48.82 11.78V26.072ZM78.2807 35.288C76.2167 35.288 74.3807 34.856 72.7727 33.992C71.1887 33.128 69.9287 31.952 68.9927 30.464C68.0807 28.952 67.6247 27.236 67.6247 25.316C67.6247 23.372 68.0807 21.656 68.9927 20.168C69.9287 18.656 71.1887 17.48 72.7727 16.64C74.3807 15.776 76.2167 15.344 78.2807 15.344C80.3207 15.344 82.1447 15.776 83.7527 16.64C85.3607 17.48 86.6207 18.644 87.5327 20.132C88.4447 21.62 88.9007 23.348 88.9007 25.316C88.9007 27.236 88.4447 28.952 87.5327 30.464C86.6207 31.952 85.3607 33.128 83.7527 33.992C82.1447 34.856 80.3207 35.288 78.2807 35.288ZM78.2807 30.68C79.2167 30.68 80.0567 30.464 80.8007 30.032C81.5447 29.6 82.1327 28.988 82.5647 28.196C82.9967 27.38 83.2127 26.42 83.2127 25.316C83.2127 24.188 82.9967 23.228 82.5647 22.436C82.1327 21.644 81.5447 21.032 80.8007 20.6C80.0567 20.168 79.2167 19.952 78.2807 19.952C77.3447 19.952 76.5047 20.168 75.7607 20.6C75.0167 21.032 74.4167 21.644 73.9607 22.436C73.5287 23.228 73.3127 24.188 73.3127 25.316C73.3127 26.42 73.5287 27.38 73.9607 28.196C74.4167 28.988 75.0167 29.6 75.7607 30.032C76.5047 30.464 77.3447 30.68 78.2807 30.68ZM74.9327 13.148L79.7927 7.964H85.8407L79.3247 13.148H74.9327ZM100.575 35.288C98.2945 35.288 96.5185 34.712 95.2465 33.56C93.9745 32.384 93.3385 30.644 93.3385 28.34V11.348H98.9545V28.268C98.9545 29.084 99.1705 29.72 99.6025 30.176C100.035 30.608 100.623 30.824 101.367 30.824C102.255 30.824 103.011 30.584 103.635 30.104L105.147 34.064C104.571 34.472 103.875 34.784 103.059 35C102.267 35.192 101.439 35.288 100.575 35.288ZM90.3505 20.384V16.064H103.779V20.384H90.3505ZM116.471 35.288C114.863 35.288 113.423 34.976 112.151 34.352C110.903 33.728 109.931 32.78 109.235 31.508C108.539 30.212 108.191 28.568 108.191 26.576V15.632H113.807V25.748C113.807 27.356 114.143 28.544 114.815 29.312C115.511 30.056 116.483 30.428 117.731 30.428C118.595 30.428 119.363 30.248 120.035 29.888C120.707 29.504 121.235 28.928 121.619 28.16C122.003 27.368 122.195 26.384 122.195 25.208V15.632H127.811V35H122.483V29.672L123.455 31.22C122.807 32.564 121.847 33.584 120.575 34.28C119.327 34.952 117.959 35.288 116.471 35.288ZM139.53 35.288C137.874 35.288 136.278 35.096 134.742 34.712C133.23 34.304 132.03 33.8 131.142 33.2L133.014 29.168C133.902 29.72 134.946 30.176 136.146 30.536C137.37 30.872 138.57 31.04 139.746 31.04C141.042 31.04 141.954 30.884 142.482 30.572C143.034 30.26 143.31 29.828 143.31 29.276C143.31 28.82 143.094 28.484 142.662 28.268C142.254 28.028 141.702 27.848 141.006 27.728C140.31 27.608 139.542 27.488 138.702 27.368C137.886 27.248 137.058 27.092 136.218 26.9C135.378 26.684 134.61 26.372 133.914 25.964C133.218 25.556 132.654 25.004 132.222 24.308C131.814 23.612 131.61 22.712 131.61 21.608C131.61 20.384 131.958 19.304 132.654 18.368C133.374 17.432 134.406 16.7 135.75 16.172C137.094 15.62 138.702 15.344 140.574 15.344C141.894 15.344 143.238 15.488 144.606 15.776C145.974 16.064 147.114 16.484 148.026 17.036L146.154 21.032C145.218 20.48 144.27 20.108 143.31 19.916C142.374 19.7 141.462 19.592 140.574 19.592C139.326 19.592 138.414 19.76 137.838 20.096C137.262 20.432 136.974 20.864 136.974 21.392C136.974 21.872 137.178 22.232 137.586 22.472C138.018 22.712 138.582 22.904 139.278 23.048C139.974 23.192 140.73 23.324 141.546 23.444C142.386 23.54 143.226 23.696 144.066 23.912C144.906 24.128 145.662 24.44 146.334 24.848C147.03 25.232 147.594 25.772 148.026 26.468C148.458 27.14 148.674 28.028 148.674 29.132C148.674 30.332 148.314 31.4 147.594 32.336C146.874 33.248 145.83 33.968 144.462 34.496C143.118 35.024 141.474 35.288 139.53 35.288Z" fill="white"/>
<path d="M26 0H6C0 0 0 0 0 6V34C0 40 0 40 6 40H26C32 40 32 40 32 34V6L26 0Z" fill="white"/>
<path d="M20.3999 17.2H3.5999C2.71625 17.2 2.3999 17.6477 2.3999 18.2C2.3999 18.7522 2.71625 19.2 3.5999 19.2H20.3999C21.2836 19.2 21.5999 18.7522 21.5999 18.2C21.5999 17.6477 21.2836 17.2 20.3999 17.2Z" fill="#3EA896"/>
<path d="M28.3999 20.4H11.5999C10.7162 20.4 10.3999 20.8477 10.3999 21.4C10.3999 21.9523 10.7162 22.4 11.5999 22.4H28.3999C29.2836 22.4 29.5999 21.9523 29.5999 21.4C29.5999 20.8477 29.2836 20.4 28.3999 20.4Z" fill="#3EA896"/>
<path d="M24.3999 23.6H7.5999C6.71625 23.6 6.3999 24.0477 6.3999 24.6C6.3999 25.1523 6.71625 25.6 7.5999 25.6H24.3999C25.2836 25.6 25.5999 25.1523 25.5999 24.6C25.5999 24.0477 25.2836 23.6 24.3999 23.6Z" fill="#3EA896"/>
<path d="M24.3999 14H7.5999C6.71625 14 6.3999 14.4477 6.3999 15C6.3999 15.5523 6.71625 16 7.5999 16H24.3999C25.2836 16 25.5999 15.5523 25.5999 15C25.5999 14.4477 25.2836 14 24.3999 14Z" fill="#3EA896"/>
</svg>
