<svg width="46" height="58" viewBox="0 0 46 58" fill="none" xmlns="http://www.w3.org/2000/svg">
<path d="M37.375 0H8.625C0 0 0 0 0 8.625V48.875C0 57.5 0 57.5 8.625 57.5H37.375C46 57.5 46 57.5 46 48.875V8.625L37.375 0Z" fill="#3EA896"/>
<path d="M29.325 24.725H5.17495C3.9047 24.725 3.44995 25.3686 3.44995 26.1625C3.44995 26.9564 3.9047 27.6 5.17495 27.6H29.325C30.5952 27.6 31.0499 26.9564 31.0499 26.1625C31.0499 25.3686 30.5952 24.725 29.325 24.725Z" fill="white"/>
<path d="M40.825 29.325H16.675C15.4047 29.325 14.95 29.9685 14.95 30.7625C14.95 31.5564 15.4047 32.2 16.675 32.2H40.825C42.0952 32.2 42.5499 31.5564 42.5499 30.7625C42.5499 29.9685 42.0952 29.325 40.825 29.325Z" fill="white"/>
<path d="M35.075 33.925H10.925C9.6547 33.925 9.19995 34.5686 9.19995 35.3625C9.19995 36.1565 9.6547 36.8 10.925 36.8H35.075C36.3452 36.8 36.7999 36.1565 36.7999 35.3625C36.7999 34.5686 36.3452 33.925 35.075 33.925Z" fill="white"/>
<path d="M35.075 20.125H10.925C9.6547 20.125 9.19995 20.7686 9.19995 21.5625C9.19995 22.3564 9.6547 23 10.925 23H35.075C36.3452 23 36.7999 22.3564 36.7999 21.5625C36.7999 20.7686 36.3452 20.125 35.075 20.125Z" fill="white"/>
</svg>
