<svg width="150" height="150" viewBox="0 0 150 150" fill="none" xmlns="http://www.w3.org/2000/svg">
<path d="M150 75C150 116.421 116.421 150 75 150C33.5786 150 0 116.421 0 75C0 33.5786 33.5786 0 75 0C116.421 0 150 33.5786 150 75ZM112.784 46.5907C110.038 43.8448 105.586 43.8448 102.841 46.5907C102.774 46.657 102.712 46.7272 102.654 46.801L70.1006 88.282L50.4738 68.6552C47.728 65.9093 43.276 65.9093 40.5301 68.6552C37.7843 71.4011 37.7843 75.853 40.5301 78.5989L65.3406 103.409C68.0865 106.155 72.5384 106.155 75.2843 103.409C75.3454 103.348 75.4031 103.284 75.4572 103.216L112.884 56.4326C115.53 53.6795 115.496 49.3029 112.784 46.5907Z" fill="#3EA896"/>
</svg>
