<svg width="32" height="40" viewBox="0 0 32 40" fill="none" xmlns="http://www.w3.org/2000/svg">
<path d="M26 0H6C0 0 0 0 0 6V34C0 40 0 40 6 40H26C32 40 32 40 32 34V6L26 0Z" fill="white"/>
<path d="M20.3999 17.2H3.5999C2.71625 17.2 2.3999 17.6477 2.3999 18.2C2.3999 18.7522 2.71625 19.2 3.5999 19.2H20.3999C21.2836 19.2 21.5999 18.7522 21.5999 18.2C21.5999 17.6477 21.2836 17.2 20.3999 17.2Z" fill="#3EA896"/>
<path d="M28.3999 20.4H11.5999C10.7162 20.4 10.3999 20.8477 10.3999 21.4C10.3999 21.9523 10.7162 22.4 11.5999 22.4H28.3999C29.2836 22.4 29.5999 21.9523 29.5999 21.4C29.5999 20.8477 29.2836 20.4 28.3999 20.4Z" fill="#3EA896"/>
<path d="M24.3999 23.6H7.5999C6.71625 23.6 6.3999 24.0477 6.3999 24.6C6.3999 25.1523 6.71625 25.6 7.5999 25.6H24.3999C25.2836 25.6 25.5999 25.1523 25.5999 24.6C25.5999 24.0477 25.2836 23.6 24.3999 23.6Z" fill="#3EA896"/>
<path d="M24.3999 14H7.5999C6.71625 14 6.3999 14.4477 6.3999 15C6.3999 15.5523 6.71625 16 7.5999 16H24.3999C25.2836 16 25.5999 15.5523 25.5999 15C25.5999 14.4477 25.2836 14 24.3999 14Z" fill="#3EA896"/>
</svg>
