<svg width="16" height="20" viewBox="0 0 16 20" fill="none" xmlns="http://www.w3.org/2000/svg">
<path d="M13 0H3C0 0 0 0 0 3V17C0 20 0 20 3 20H13C16 20 16 20 16 17V3L13 0Z" fill="#3EA896"/>
<path d="M10.2 8.6001H1.80001C1.35818 8.6001 1.20001 8.82396 1.20001 9.1001C1.20001 9.37624 1.35818 9.6001 1.80001 9.6001H10.2C10.6418 9.6001 10.8 9.37624 10.8 9.1001C10.8 8.82396 10.6418 8.6001 10.2 8.6001Z" fill="white"/>
<path d="M14.2 10.2002H5.80001C5.35818 10.2002 5.20001 10.4241 5.20001 10.7002C5.20001 10.9763 5.35818 11.2002 5.80001 11.2002H14.2C14.6418 11.2002 14.8 10.9763 14.8 10.7002C14.8 10.4241 14.6418 10.2002 14.2 10.2002Z" fill="white"/>
<path d="M12.2 11.7998H3.80001C3.35818 11.7998 3.20001 12.0237 3.20001 12.2998C3.20001 12.5759 3.35818 12.7998 3.80001 12.7998H12.2C12.6418 12.7998 12.8 12.5759 12.8 12.2998C12.8 12.0237 12.6418 11.7998 12.2 11.7998Z" fill="white"/>
<path d="M12.2 7H3.80001C3.35818 7 3.20001 7.22386 3.20001 7.5C3.20001 7.77614 3.35818 8 3.80001 8H12.2C12.6418 8 12.8 7.77614 12.8 7.5C12.8 7.22386 12.6418 7 12.2 7Z" fill="white"/>
</svg>
